<?xml version="1.0" standalone="no"?><!DOCTYPE svg PUBLIC "-//W3C//DTD SVG 1.1//EN" "http://www.w3.org/Graphics/SVG/1.1/DTD/svg11.dtd"><svg t="1742125473821" class="icon" viewBox="0 0 1024 1024" version="1.1" xmlns="http://www.w3.org/2000/svg" p-id="12251" xmlns:xlink="http://www.w3.org/1999/xlink" width="200" height="200"><path d="M917.334 85.334h33.834l-48.916 48.916a21.386 21.386 0 0 0-4.626 23.25 21.31 21.31 0 0 0 19.708 13.166h85.334a21.32 21.32 0 0 0 21.334-21.334A21.324 21.324 0 0 0 1002.666 128h-33.834l48.916-48.916a21.386 21.386 0 0 0 4.626-23.25 21.31 21.31 0 0 0-19.708-13.166h-85.334C905.542 42.666 896 52.208 896 64s9.542 21.334 21.334 21.334zM512 0C229.666 0 0 229.688 0 512s229.666 512 512 512 512-229.688 512-512S794.334 0 512 0zM213.334 384a21.32 21.32 0 0 1 21.334-21.334A21.32 21.32 0 0 1 256.002 384c0 47.062 38.292 85.334 85.334 85.334s85.334-38.27 85.334-85.334c0-11.792 9.542-21.334 21.334-21.334s21.334 9.542 21.334 21.334c0 70.584-57.416 128-128 128-70.588 0-128.004-57.416-128.004-128z m419.042 421.708c-37.75 31.562-78.25 47.562-120.376 47.562-42.084 0-82.542-15.98-120.292-47.5-9.042-7.542-10.25-21-2.708-30.042 7.542-9.042 21.042-10.188 30.042-2.708 59.792 49.896 126.208 49.834 186-0.062 8.916-7.562 22.458-6.376 30.042 2.688 7.542 9.042 6.332 22.5-2.708 30.062zM682.666 512c-70.584 0-128-57.416-128-128 0-11.792 9.542-21.334 21.334-21.334s21.334 9.542 21.334 21.334c0 47.062 38.292 85.334 85.334 85.334 47.04 0 85.332-38.272 85.332-85.334 0-11.792 9.542-21.334 21.334-21.334s21.334 9.542 21.334 21.334c-0.002 70.584-57.418 128-128.002 128z m128-213.334H704a21.31 21.31 0 0 1-19.708-13.166 21.384 21.384 0 0 1 4.626-23.25L759.166 192H704a21.32 21.32 0 0 1-21.334-21.334A21.32 21.32 0 0 1 704 149.332h106.666c8.626 0 16.416 5.188 19.708 13.166a21.384 21.384 0 0 1-4.626 23.25L755.5 256h55.166A21.32 21.32 0 0 1 832 277.334a21.32 21.32 0 0 1-21.334 21.332z" p-id="12252" fill="#8CB8E6"></path></svg>