<?xml version="1.0" standalone="no"?><!DOCTYPE svg PUBLIC "-//W3C//DTD SVG 1.1//EN" "http://www.w3.org/Graphics/SVG/1.1/DTD/svg11.dtd"><svg t="1742123979664" class="icon" viewBox="0 0 1035 1024" version="1.1" xmlns="http://www.w3.org/2000/svg" p-id="5466" xmlns:xlink="http://www.w3.org/1999/xlink" width="202.1484375" height="200"><path d="M993.337344 957.780992 57.286656 957.780992 57.286656 175.93344c0-14.138368-11.461632-25.6-25.6-25.6l-1.024 0c-14.138368 0-25.6 11.461632-25.6 25.6l0 807.447552 0 1.024 0 0.512c0 14.138368 11.461632 25.6 25.6 25.6l1.024 0c1.75104 0 3.46112-0.177152 5.113856-0.512l956.535808 0c14.138368 0 25.6-11.461632 25.6-25.6l0-1.024C1018.937344 969.242624 1007.474688 957.780992 993.337344 957.780992z" p-id="5467" fill="#8CB8E6"></path><path d="M206.164992 749.056c8.588288-8.868864 51.108864-63.716352 102.4-124.928 44.417024-53.008384 98.577408-101.358592 127.659008-101.716992 55.296-0.683008 94.891008 120.148992 165.888 120.148992 66.219008 0 120.810496-71.595008 174.763008-145.408 32.941056-45.067264 63.382528-101.421056 74.360832-123.271168l102.064128 59.394048L923.91936 263.9104c-3.191808-19.441664-20.064256-34.2784-40.409088-34.2784-5.320704 0-10.39872 1.025024-15.06304 2.871296l-160.944128 57.735168 100.872192 58.699776c-13.262848 20.854784-30.089216 50.043904-64.951296 102.473728-46.297088 69.62688-103.083008 137.899008-139.173888 137.899008-46.511104 0-81.327104-120.148992-168.09984-120.148992-46.047232 0-102.467584 47.051776-154.892288 105.812992-59.48928 66.681856-112.3584 136.10496-112.3584 136.10496C144.724992 742.228992 185.991168 769.88928 206.164992 749.056z" p-id="5468" fill="#8CB8E6"></path></svg>