<?xml version="1.0" standalone="no"?><!DOCTYPE svg PUBLIC "-//W3C//DTD SVG 1.1//EN" "http://www.w3.org/Graphics/SVG/1.1/DTD/svg11.dtd"><svg t="1741874986457" class="icon" viewBox="0 0 1024 1024" version="1.1" xmlns="http://www.w3.org/2000/svg" p-id="6427" xmlns:xlink="http://www.w3.org/1999/xlink" width="200" height="200"><path d="M876.032 123.136a89.344 89.344 0 0 0-89.344-84.736H225.536A89.344 89.344 0 0 0 140.8 128v772.864A89.344 89.344 0 0 0 230.4 985.6h323.328a38.4 38.4 0 0 0-3.584-76.8H228.096a12.8 12.8 0 0 1-10.496-12.8V338.176H486.4V384a51.2 51.2 0 1 0 76.8 44.032A51.2 51.2 0 0 0 537.6 384v-45.824h261.888v218.624a38.4 38.4 0 0 0 76.8-3.84V123.136z m-76.8 138.24H537.6v-19.712a51.2 51.2 0 1 0-76.8-44.288 51.2 51.2 0 0 0 25.6 44.288v19.712H217.6v-135.68A12.8 12.8 0 0 1 230.4 115.2h558.592a12.8 12.8 0 0 1 10.496 12.544z" p-id="6428" fill="#576AEE"></path><path d="M998.4 972.8a25.6 25.6 0 0 1-25.6-25.6v-179.2a51.2 51.2 0 0 0-51.2-51.2h-179.2a25.6 25.6 0 0 1 0-51.2h179.2a102.4 102.4 0 0 1 102.4 102.4v179.2a25.6 25.6 0 0 1-25.6 25.6z" p-id="6429" fill="#576AEE"></path><path d="M896 742.4h-179.2a51.2 51.2 0 0 0-51.2 51.2v179.2a51.2 51.2 0 0 0 51.2 51.2h179.2a51.2 51.2 0 0 0 51.2-51.2v-179.2a51.2 51.2 0 0 0-51.2-51.2z m-12.8 165.12h-51.2v51.2a25.6 25.6 0 0 1-51.2 0v-51.2h-51.2a25.6 25.6 0 0 1 0-51.2h51.2v-51.2a25.6 25.6 0 0 1 51.2 0v51.2h51.2a25.6 25.6 0 0 1 0 51.2z" p-id="6430" fill="#576AEE"></path></svg>