<?xml version="1.0" standalone="no"?><!DOCTYPE svg PUBLIC "-//W3C//DTD SVG 1.1//EN" "http://www.w3.org/Graphics/SVG/1.1/DTD/svg11.dtd"><svg t="1742124092243" class="icon" viewBox="0 0 1024 1024" version="1.1" xmlns="http://www.w3.org/2000/svg" p-id="11001" xmlns:xlink="http://www.w3.org/1999/xlink" width="200" height="200"><path d="M896 512c0 211.2-172.8 384-384 384s-384-172.8-384-384c0-83.2 25.6-166.4 76.8-230.4C275.2 185.6 384 128 512 128c211.2 0 384 172.8 384 384z" fill="#FBB03B" p-id="11002"></path><path d="M326.4 550.4c-12.8 0-25.6 0-38.4-6.4-44.8-12.8-64-57.6-70.4-70.4l25.6-6.4c6.4 6.4 19.2 38.4 51.2 51.2 38.4 12.8 108.8 0 140.8-51.2l19.2 12.8c-25.6 44.8-76.8 70.4-128 70.4zM652.8 550.4c-12.8 0-25.6 0-38.4-6.4-44.8-12.8-64-51.2-70.4-70.4l25.6-6.4c6.4 6.4 19.2 38.4 51.2 51.2 38.4 12.8 108.8 0 140.8-51.2l19.2 12.8c-25.6 44.8-76.8 70.4-128 70.4zM608 435.2l-115.2-12.8 70.4-44.8h-32v-25.6h115.2l-83.2 51.2 51.2 6.4zM627.2 313.6l89.6-108.8H640v-25.6h134.4l-83.2 96 160-19.2 6.4 25.6zM486.4 851.2c-6.4 0-12.8 0-19.2-6.4-6.4-6.4-12.8-12.8-19.2-25.6 0-12.8 0-19.2 6.4-32s25.6-19.2 38.4-12.8c19.2 6.4 38.4 19.2 38.4 38.4 0 12.8-6.4 19.2-19.2 32-6.4 6.4-12.8 6.4-25.6 6.4z m-6.4-44.8v6.4c0 6.4 0 6.4 6.4 6.4h19.2c6.4 0 6.4-6.4 6.4-6.4 0-6.4-6.4-12.8-12.8-12.8-12.8 0-19.2 0-19.2 6.4z" fill="#333333" p-id="11003"></path></svg>