<?xml version="1.0" standalone="no"?><!DOCTYPE svg PUBLIC "-//W3C//DTD SVG 1.1//EN" "http://www.w3.org/Graphics/SVG/1.1/DTD/svg11.dtd"><svg t="1742124073048" class="icon" viewBox="0 0 1024 1024" version="1.1" xmlns="http://www.w3.org/2000/svg" p-id="9880" xmlns:xlink="http://www.w3.org/1999/xlink" width="200" height="200"><path d="M0 0h1024v1024H0z" fill="#FFFFFF" fill-opacity="0" p-id="9881"></path><path d="M17.3056 511.2832c0 234.973867 190.498133 425.506133 425.506133 425.506133 235.008 0 425.506133-190.532267 425.506134-425.506133 0-235.008-190.498133-425.506133-425.506134-425.506133C207.803733 85.777067 17.3056 276.2752 17.3056 511.2832z" fill="#FDDF6D" p-id="9882"></path><path d="M533.981867 873.949867c-234.973867 0-425.472-190.498133-425.472-425.506134 0-125.5424 54.3744-238.3872 140.868266-316.245333A425.472 425.472 0 0 0 17.3056 511.2832c0 234.973867 190.498133 425.472 425.506133 425.472 109.431467 0 209.237333-41.301333 284.637867-109.226667-58.026667 29.696-123.8016 46.421333-193.467733 46.421334z" fill="#FCC56B" p-id="9883"></path><path d="M457.489067 756.736a70.997333 70.997333 0 1 0 141.9264 0 70.997333 70.997333 0 0 0-141.9264 0z" fill="#7F184C" p-id="9884"></path><path d="M382.429867 529.578667c-33.211733 0-64.443733-8.192-79.5648-20.7872a17.3056 17.3056 0 1 0-22.186667 26.589866c21.6064 18.0224 59.630933 28.808533 101.717333 28.808534 40.8576 0 78.9504-10.6496 101.888-28.433067a17.3056 17.3056 0 0 0-21.230933-27.3408c-16.554667 12.834133-48.2304 21.162667-80.622933 21.162667z m402.090666 6.178133a17.3056 17.3056 0 0 0-21.1968-27.3408c-16.5888 12.834133-48.2304 21.162667-80.657066 21.162667-33.211733 0-64.4096-8.192-79.530667-20.7872a17.3056 17.3056 0 0 0-22.186667 26.589866c21.6064 18.0224 59.630933 28.808533 101.717334 28.808534 40.8576 0 78.916267-10.6496 101.888-28.433067z m-256.068266 309.248a88.405333 88.405333 0 0 0 88.2688-88.2688 88.405333 88.405333 0 0 0-88.2688-88.2688 88.405333 88.405333 0 0 0-88.2688 88.2688 88.405333 88.405333 0 0 0 88.2688 88.2688z m0-141.9264c29.5936 0 53.6576 24.064 53.6576 53.6576 0 29.5936-24.064 53.6576-53.6576 53.6576a53.725867 53.725867 0 0 1-53.6576-53.6576c0-29.5936 24.064-53.6576 53.6576-53.6576z m47.5136-383.726933a17.3056 17.3056 0 0 0-19.387734-2.116267l-75.3664 40.004267a17.3056 17.3056 0 0 0 16.213334 30.583466l36.590933-19.421866-19.1488 55.3984a17.3056 17.3056 0 0 0 23.8592 21.265066l67.310933-32.324266a17.3056 17.3056 0 0 0-14.9504-31.197867l-29.969066 14.336 19.968-57.685333a17.3056 17.3056 0 0 0-5.12-18.8416z" fill="#000000" p-id="9885"></path><path d="M759.364267 201.591467a17.237333 17.237333 0 0 0-19.387734-2.1504l-107.042133 56.797866a17.3056 17.3056 0 1 0 16.247467 30.583467l68.1984-36.181333-33.1776 96.085333a17.3056 17.3056 0 0 0 24.029866 21.162667l95.675734-47.274667a406.528 406.528 0 0 1 47.104 190.6688c0 225.0752-183.125333 408.1664-408.200534 408.1664-225.0752 0-408.200533-183.0912-408.200533-408.1664S217.770667 103.048533 442.811733 103.048533c51.882667 0 102.434133 9.6256 150.254934 28.5696a17.3056 17.3056 0 1 0 12.731733-32.187733 440.695467 440.695467 0 0 0-162.986667-30.958933C198.656 68.471467 0 267.127467 0 511.2832 0 755.438933 198.656 954.026667 442.811733 954.026667c244.155733 0 442.811733-198.656 442.811734-442.7776 0-115.3024-44.032-224.3584-124.0064-307.3024a17.237333 17.237333 0 0 0-2.2528-2.389334z m-28.672 116.599466l24.200533-70.0416c11.400533 13.482667 21.9136 27.682133 31.470933 42.530134l-55.671466 27.511466z m291.601066-118.954666a17.3056 17.3056 0 0 0-23.108266-8.123734l-83.626667 40.1408 46.660267-135.031466a17.3056 17.3056 0 0 0-24.507734-20.957867l-135.509333 71.918933a17.3056 17.3056 0 1 0 16.247467 30.583467l96.699733-51.3024-45.841067 132.676267a17.3056 17.3056 0 0 0 23.8592 21.265066l121.002667-58.094933a17.3056 17.3056 0 0 0 8.123733-23.074133z" fill="#000000" p-id="9886"></path><path d="M641.024 143.701333a17.3056 17.3056 0 1 0 34.645333 0 17.3056 17.3056 0 0 0-34.6112 0z" fill="#000000" p-id="9887"></path></svg>