<?xml version="1.0" standalone="no"?><!DOCTYPE svg PUBLIC "-//W3C//DTD SVG 1.1//EN" "http://www.w3.org/Graphics/SVG/1.1/DTD/svg11.dtd"><svg t="1742196915135" class="icon" viewBox="0 0 1024 1024" version="1.1" xmlns="http://www.w3.org/2000/svg" p-id="4010" xmlns:xlink="http://www.w3.org/1999/xlink" width="200" height="200"><path d="M819.597 357.098a15.107 15.107 0 0 1-0.617-4.267v-88.867c0-8.318-6.745-15.062-15.064-15.062h-92.421c-1.312 0-2.611-0.169-3.879-0.508-11.941-3.191-81.333-20.277-191.631-18.336-0.716 0.012-1.438 0.027-2.158 0.041l-2.158-0.041c-110.298-1.941-179.689 15.145-191.631 18.336a14.982 14.982 0 0 1-3.879 0.508H223.74c-8.32 0-15.064 6.743-15.064 15.062v88.867c0 1.447-0.209 2.879-0.617 4.267-3.25 11.043-18.23 67.948-18.23 178.72 0 149.753 14.722 204.65 18.143 215.385 0.47 1.474 0.704 3.003 0.704 4.55v88.081c0 8.318 6.745 15.062 15.064 15.062h80.108c1.871 0 3.717 0.348 5.461 1.025 10.811 4.196 60.605 19.747 200.949 17.819 1.183-0.017 2.377-0.036 3.571-0.055 1.194 0.019 2.388 0.038 3.571 0.055 140.344 1.928 190.137-13.624 200.949-17.819a15.07 15.07 0 0 1 5.461-1.025h80.108c8.32 0 15.064-6.743 15.064-15.062v-88.081c0-1.547 0.235-3.076 0.704-4.55 3.421-10.735 18.143-65.632 18.143-215.385-0.001-110.771-14.982-167.677-18.232-178.72z" fill="#FFC912" p-id="4011"></path><path d="M268.675 843.835v-88.081c0-1.547-0.235-3.077-0.704-4.55-3.421-10.735-18.144-65.632-18.144-215.385 0-110.771 14.98-167.677 18.23-178.72 0.408-1.388 0.617-2.82 0.617-4.267v-88.867c0-8.318 6.745-15.062 15.064-15.062h-60c-8.32 0-15.064 6.744-15.064 15.062v88.867c0 1.447-0.209 2.879-0.617 4.267-3.25 11.043-18.23 67.948-18.23 178.72 0 149.753 14.722 204.65 18.144 215.385 0.469 1.474 0.704 3.003 0.704 4.55v88.081c0 8.318 6.745 15.062 15.064 15.062h60c-8.319-0.001-15.064-6.744-15.064-15.062zM363.848 858.896h-60c1.871 0 3.717 0.349 5.461 1.025 10.811 4.196 60.605 19.748 200.949 17.82 1.183-0.017 2.377-0.036 3.57-0.055a1694.232 1694.232 0 0 0 30.001 0.215c-120.263-0.224-164.416-14.059-174.519-17.98a15.104 15.104 0 0 0-5.462-1.025zM380.039 248.395c10.902-2.914 69.7-17.406 163.788-18.429a979.013 979.013 0 0 0-27.842 0.094c-0.716 0.012-1.438 0.027-2.158 0.041l-2.157-0.041c-110.298-1.941-179.689 15.145-191.631 18.336a14.982 14.982 0 0 1-3.879 0.508h60a15.064 15.064 0 0 0 3.879-0.509z" fill="#FFB408" p-id="4012"></path><path d="M759.465 445.107h-0.013a8 8 0 0 1-7.987-8.013l0.141-88a8 8 0 0 1 8-7.987h0.013a8 8 0 0 1 7.987 8.013l-0.141 88a8 8 0 0 1-8 7.987zM759.466 500.115h-0.058a8 8 0 0 1-7.943-8.057l0.141-20c0.032-4.418 3.647-7.932 8.057-7.943a8 8 0 0 1 7.943 8.057l-0.141 20a8 8 0 0 1-7.999 7.943z" fill="#FFFFFF" p-id="4013"></path><path d="M431.348 468.111m-60 0a60 60 0 1 0 120 0 60 60 0 1 0-120 0Z" fill="#FFFFFF" p-id="4014"></path><path d="M431.348 538.11c-38.598 0-70-31.402-70-70s31.402-70 70-70 70 31.402 70 70-31.402 70-70 70z m0-120c-27.57 0-50 22.43-50 50s22.43 50 50 50 50-22.43 50-50-22.43-50-50-50z" fill="#723703" p-id="4015"></path><path d="M431.348 468.111m-16 0a16 16 0 1 0 32 0 16 16 0 1 0-32 0Z" fill="#723703" p-id="4016"></path><path d="M596.308 468.111m-60 0a60 60 0 1 0 120 0 60 60 0 1 0-120 0Z" fill="#FFFFFF" p-id="4017"></path><path d="M596.308 538.11c-38.598 0-70-31.402-70-70s31.402-70 70-70 70 31.402 70 70-31.402 70-70 70z m0-120c-27.57 0-50 22.43-50 50s22.43 50 50 50 50-22.43 50-50-22.43-50-50-50z" fill="#723703" p-id="4018"></path><path d="M596.308 468.111m-16 0a16 16 0 1 0 32 0 16 16 0 1 0-32 0Z" fill="#723703" p-id="4019"></path><path d="M272.828 591.357h482v168h-482z" fill="#AEE2FF" p-id="4020"></path><path d="M756.089 689.96m-32 0a32 32 0 1 0 64 0 32 32 0 1 0-64 0Z" fill="#FFFFFF" p-id="4021"></path><path d="M271.566 689.96m-32 0a32 32 0 1 0 64 0 32 32 0 1 0-64 0Z" fill="#FFFFFF" p-id="4022"></path><path d="M271.567 647.96c-15.161 0-28.469 8.076-35.855 20.15-55.263-19.201-85.561-46.46-90.067-81.086-6.767-52.007 44.979-104.242 52.609-110.137a9.981 9.981 0 0 0 5.768-6.234c1.675-5.263-1.234-10.887-6.498-12.561-6.189-1.976-10.887 1.934-17.343 8.115-5.07 4.854-10.778 11.136-16.074 17.689-10.805 13.374-25.355 34.507-33.315 59.241-9.433 29.311-7.319 56.032 6.281 79.424 15.741 27.075 46.883 48.793 92.596 64.617a41.95 41.95 0 0 0-0.102 2.78c0 23.159 18.841 42 42 42s42-18.841 42-42-18.841-41.998-42-41.998z m0 64c-12.131 0-22-9.869-22-22s9.869-22 22-22 22 9.869 22 22-9.869 22-22 22z" fill="#723703" p-id="4023"></path><path d="M392.92 630.033v22.793c-1.72-0.586-3.047-0.879-3.984-0.879-1.797 0-3.34 0.665-4.629 1.992-1.289 1.328-1.934 2.93-1.934 4.805 0 1.603 0.703 3.633 2.109 6.094l1.816 3.164c3.281 5.704 4.922 11.212 4.922 16.523 0 7.773-2.764 14.355-8.291 19.746-5.528 5.391-12.275 8.086-20.244 8.086-3.829 0-7.617-0.879-11.367-2.637v-23.145c2.265 1.445 4.277 2.168 6.035 2.168 2.07 0 3.799-0.595 5.186-1.787 1.386-1.191 2.08-2.686 2.08-4.482 0-1.172-1.113-3.729-3.34-7.676-3.555-6.249-5.332-12.5-5.332-18.75 0-7.538 2.686-14.033 8.057-19.482 5.37-5.449 11.786-8.174 19.248-8.174 3.281 0.001 6.504 0.549 9.668 1.641zM415.35 630.385h23.789v47.52c0 3.712 0.595 6.182 1.787 7.412 1.191 1.23 3.545 1.846 7.061 1.846h1.23v23.203h-6.328c-8.672 0-15.431-2.528-20.273-7.588-4.844-5.059-7.266-12.079-7.266-21.064v-51.329zM511.901 661.498v17.812h-15.527c-2.109 0-3.604 0.313-4.482 0.938-0.879 0.625-1.318 1.68-1.318 3.164 0 1.68 0.448 2.783 1.348 3.311 0.898 0.527 2.733 0.791 5.508 0.791h15.996v22.852h-18.691c-8.789 0-15.508-2.1-20.156-6.299-4.649-4.198-6.973-10.263-6.973-18.193v-31.348c0-7.655 2.197-13.594 6.592-17.812s10.576-6.328 18.545-6.328h20.684v22.969h-15.176c-4.102 0-6.152 1.328-6.152 3.984 0 1.562 0.488 2.646 1.465 3.252 0.976 0.606 2.715 0.908 5.215 0.908h13.122zM581.733 661.498v17.812h-15.527c-2.109 0-3.604 0.313-4.482 0.938-0.879 0.625-1.318 1.68-1.318 3.164 0 1.68 0.448 2.783 1.348 3.311 0.898 0.527 2.733 0.791 5.508 0.791h15.996v22.852h-18.691c-8.789 0-15.508-2.1-20.156-6.299-4.649-4.198-6.973-10.263-6.973-18.193v-31.348c0-7.655 2.197-13.594 6.592-17.812s10.576-6.328 18.545-6.328h20.684v22.969H568.08c-4.102 0-6.152 1.328-6.152 3.984 0 1.562 0.488 2.646 1.465 3.252 0.976 0.606 2.715 0.908 5.215 0.908h13.125zM634.924 682.709v-20.977c4.805 0 7.207-1.836 7.207-5.508 0-3.359-1.837-5.039-5.508-5.039-3.712 0-5.566 2.306-5.566 6.914v52.266h-23.789V660.56c0-5.156 0.518-9.384 1.553-12.686 1.034-3.301 2.803-6.377 5.303-9.229 2.812-3.164 6.328-5.663 10.547-7.5 4.219-1.836 8.574-2.754 13.066-2.754 8.124 0 14.95 2.734 20.479 8.203 5.527 5.47 8.291 12.246 8.291 20.332 0 7.852-2.481 14.219-7.441 19.102-4.532 4.492-11.367 6.738-20.508 6.738l-3.634-0.057z" fill="#FC7070" p-id="4024"></path><path d="M637.828 201.741c0-68.2-55.8-124-124-124s-124 55.8-124 124v96.673h248v-96.673z" fill="#FC7070" p-id="4025"></path><path d="M648.828 354.079h-270c-15.464 0-28-12.536-28-28s12.536-28 28-28h270c15.464 0 28 12.536 28 28s-12.536 28-28 28z" fill="#AEE2FF" p-id="4026"></path><path d="M591.134 140.512s17 28 17 60v55h-45v-52s0-42-27-64c0 0-7.982-6.5-17.482-10.5s72.482 11.5 72.482 11.5z" fill="#F75252" p-id="4027"></path><path d="M611.143 140.512s17 28 17 60v55h-45v-52s3.009-40-26.991-61.5c-7.911-5.67-26-12-37.5-13l28.5-14.5 63.991 26z" fill="#FC7070" p-id="4028"></path><path d="M449.828 298.079v-96.338c0-57.864 40.171-106.794 94-120.298a123.156 123.156 0 0 0-30-3.701c-68.2 0-124 55.8-124 124v96.338h60z" fill="#EA4F3B" p-id="4029"></path><path d="M410.828 326.079c0-13.99 10.26-25.582 23.666-27.665h-44.666v-0.335h-11c-15.464 0-28 12.536-28 28s12.536 28 28 28h60c-15.464 0-28-12.536-28-28z" fill="#64D0FF" p-id="4030"></path><path d="M434.493 298.414a28.279 28.279 0 0 1 4.334-0.335h-49v0.335h44.666z" fill="#AEE2FF" p-id="4031"></path><path d="M438.828 298.079c-1.474 0-2.922 0.116-4.334 0.335h15.334v-0.335h-11z" fill="#AEE2FF" p-id="4032"></path><path d="M597.828 257.515m-39.999 0a39.999 39.999 0 1 0 79.998 0 39.999 39.999 0 1 0-79.998 0Z" fill="#AEE2FF" p-id="4033"></path><path d="M577.829 257.515c0-18.638 12.747-34.299 29.999-38.739a40.055 40.055 0 0 0-10-1.26c-22.091 0-39.999 17.908-39.999 39.999s17.908 40 39.999 40c3.453 0 6.804-0.438 10-1.26-17.252-4.441-29.999-20.102-29.999-38.74z" fill="#64D0FF" p-id="4034"></path><path d="M884.43 514.771c-12.123-21.966-28.417-40.763-38.686-50.186-4.347-3.989-9.269-8.512-15.612-6.492-5.263 1.674-8.172 7.297-6.498 12.561a9.977 9.977 0 0 0 5.769 6.235c7.68 5.929 59.755 58.526 52.532 110.697-4.76 34.385-35.02 61.441-89.989 80.527-7.385-12.076-20.694-20.153-35.857-20.153-23.159 0-42 18.841-42 42s18.841 42 42 42 42-18.841 42-42c0-0.933-0.042-1.855-0.102-2.773 59.193-20.482 93.631-50.568 102.429-89.537 5.733-25.391 0.354-53.275-15.986-82.879zM756 712c-12.357 0-22.375-10.018-22.375-22.375S743.643 667.25 756 667.25s22.375 10.018 22.375 22.375S768.357 712 756 712z" fill="#723703" p-id="4035"></path></svg>