<?xml version="1.0" standalone="no"?><!DOCTYPE svg PUBLIC "-//W3C//DTD SVG 1.1//EN" "http://www.w3.org/Graphics/SVG/1.1/DTD/svg11.dtd"><svg t="1742125463005" class="icon" viewBox="0 0 1024 1024" version="1.1" xmlns="http://www.w3.org/2000/svg" p-id="12043" xmlns:xlink="http://www.w3.org/1999/xlink" width="200" height="200"><path d="M487.3472 512.2048a17.31584 17.31584 0 0 0-24.28928-3.06688c-16.5632 12.8512-48.22016 21.16096-80.64 21.16096-33.21344 0-64.44032-8.15616-79.55456-20.77184a17.3056 17.3056 0 0 0-22.18496 26.5728c21.61152 18.04288 59.64288 28.81536 101.73952 28.81536 40.84224 0 78.91968-10.624 101.8624-28.42624a17.3056 17.3056 0 0 0 3.06688-24.28416z m300.25728 0a17.31072 17.31072 0 0 0-24.28416-3.06688c-16.56832 12.8512-48.22016 21.16096-80.64 21.16096-33.21344 0-64.44032-8.15616-79.54944-20.77184a17.31072 17.31072 0 0 0-22.19008 26.5728c21.61152 18.04288 59.64288 28.81536 101.7344 28.81536 40.84224 0.00512 78.91968-10.624 101.86752-28.42624a17.3056 17.3056 0 0 0 3.06176-24.28416z m-259.14368 156.99456c-48.67584 0-88.27392 39.59808-88.27392 88.27904 0 48.67584 39.59808 88.2688 88.27392 88.2688s88.27392-39.59296 88.27392-88.2688c0-48.67584-39.59808-88.27904-88.27392-88.27904z m0 141.93152c-29.58336 0-53.65248-24.06912-53.65248-53.65248 0-29.58848 24.06912-53.6576 53.65248-53.6576s53.65248 24.06912 53.65248 53.6576c0 29.58336-24.06912 53.65248-53.65248 53.65248z m85.7088-420.75136a17.3056 17.3056 0 0 0-23.09632-8.1152l-29.94688 14.37184 19.94752-57.73824a17.3056 17.3056 0 0 0-24.47872-20.9408l-75.39712 40.00256a17.31584 17.31584 0 0 0 16.2304 30.58176l36.57216-19.4048-19.13344 55.39328a17.31072 17.31072 0 0 0 23.84896 21.25312l67.33312-32.31232a17.3056 17.3056 0 0 0 8.12032-23.0912z" p-id="12044" fill="#8CB8E6"></path><path d="M761.63072 204.7232a17.1776 17.1776 0 0 0-2.27328-2.41152c-3.59936-3.08736-13.2352-5.45792-19.36384-2.14016L632.9344 256.9728a17.31072 17.31072 0 0 0 16.2304 30.58176l68.224-36.20352-33.18784 96.09728a17.3056 17.3056 0 0 0 24.02816 21.1712l95.67744-47.2576c30.75584 58.11712 47.09888 123.21792 47.09888 190.63808 0 225.0752-183.11168 408.192-408.18688 408.192S34.62144 737.08032 34.62144 512.00512s183.1168-408.192 408.192-408.192c51.8912 0 102.44608 9.6 150.25152 28.53376a17.3056 17.3056 0 0 0 22.46144-9.7024l0.00512-0.01536a17.3056 17.3056 0 0 0-9.71264-22.46656c-51.88608-20.55168-106.7264-30.97088-163.00032-30.97088C198.64064 69.19168 0 267.83744 0 512s198.64064 442.80832 442.80832 442.80832c244.16256 0 442.80832-198.64064 442.80832-442.80832 0.00512-115.29216-44.02688-224.33792-123.98592-307.2768z m-30.9504 114.19136l24.19712-70.05184a408.6272 408.6272 0 0 1 31.48288 42.5472l-55.68 27.50464z m291.6096-118.95296a17.31072 17.31072 0 0 0-23.09632-8.1152l-83.63008 40.13568 46.63808-135.03488a17.3056 17.3056 0 1 0-24.4736-20.9408l-135.52128 71.90528a17.31584 17.31584 0 0 0 16.2304 30.58176l96.69632-51.30752-45.82912 132.69504a17.3056 17.3056 0 0 0 23.84896 21.25312l121.02656-58.07616a17.3056 17.3056 0 0 0 8.11008-23.09632z" p-id="12045" fill="#8CB8E6"></path><path d="M641.04448 144.41472a17.31072 17.31072 0 0 0 34.62144 0.01536v-0.01536a17.31072 17.31072 0 0 0-34.62144-0.01536v0.01536z" p-id="12046" fill="#8CB8E6"></path></svg>