<?xml version="1.0" standalone="no"?><!DOCTYPE svg PUBLIC "-//W3C//DTD SVG 1.1//EN" "http://www.w3.org/Graphics/SVG/1.1/DTD/svg11.dtd"><svg t="1741764426931" class="icon" viewBox="0 0 1149 1024" version="1.1" xmlns="http://www.w3.org/2000/svg" p-id="3453" xmlns:xlink="http://www.w3.org/1999/xlink" width="224.4140625" height="200"><path d="M234.516461 269.689058c38.972407 0 70.345195-38.972407 70.345195-86.323882v-97.431018C304.861656 38.972407 273.294006 0 234.516461 0s-70.442626 38.972407-70.442627 86.323882v97.431018c0 47.643768 31.56765 86.323882 70.442627 86.323882z m914.584966-92.656898c-3.117793-79.016556-76.288487-73.852712-76.288487-73.852712h-41.992769v137.182874s-0.97431 60.212369-59.432921 60.407231H853.593149c-59.530352-1.94862-56.704853-58.458611-56.704852-58.458611V103.179448H352.797716v138.74177s2.8255 56.899715-56.704852 58.458611H178.298763c-58.458611 0-59.432921-60.407231-59.432921-60.407231V103.179448H76.873073S3.702379 98.015604 0.584586 177.03216c0 3.215224-0.584586 5.066413-0.584586 5.066413v762.78744c0 77.944814 79.601142 79.113987 79.601142 79.113987h990.386299S1149.686013 1023.02569 1149.686013 945.080875V182.293435s0-1.851189-0.584586-5.066413zM576.401903 863.23882c0 59.920076-114.87117 73.560419-222.727307 73.560419s-224.091342-13.640343-224.091342-73.560419v-16.465842c0-44.03882 79.40628-88.564795 147.023406-113.019981 4.968982-1.851189 28.254995-14.517222 15.199239-48.715509a215.419981 215.419981 0 0 1-58.458611-144.100476c0-83.595814 55.340818-127.342341 119.937584-127.34234s120.327307 43.746527 120.327307 127.34234a216.394291 216.394291 0 0 1-58.458611 143.808183c-12.763463 38.972407 7.69705 48.033492 10.912274 48.715509 71.027212 23.480875 150.823216 68.201713 150.823216 113.019981z m394.498192-27.475547H719.722931a53.879353 53.879353 0 0 1 0-107.758706h251.177164a53.879353 53.879353 0 1 1 0 107.758706z m0-213.37393H719.722931a53.879353 53.879353 0 1 1 0-107.758706h251.177164a53.879353 53.879353 0 1 1 0 107.758706zM915.85157 269.689058c38.972407 0 70.345195-38.972407 70.345195-86.323882v-97.431018C985.904472 38.972407 951.803616 0 912.928639 0s-68.201713 38.972407-68.201712 86.323882v97.431018c0 47.643768 31.470219 86.323882 70.345195 86.323882z m0 0" fill="#576AEE" p-id="3454"></path></svg>